<svg xmlns="http://www.w3.org/2000/svg" version="1.1" xmlns:xlink="http://www.w3.org/1999/xlink" xmlns:svgjs="http://svgjs.dev/svgjs" width="1500" height="1687" viewBox="0 0 1500 1687"><g transform="matrix(1,0,0,1,0.00011015625000254659,0)"><svg viewBox="0 0 320 360" data-background-color="#f5ba41" preserveAspectRatio="xMidYMid meet" height="1687" width="1500" xmlns="http://www.w3.org/2000/svg" xmlns:xlink="http://www.w3.org/1999/xlink"><g id="tight-bounds" transform="matrix(1,0,0,1,0.000023499999997511622,0)"><svg viewBox="0 0 320 360" height="360" width="320"><g><svg></svg></g><g><svg viewBox="0 0 320 360" height="360" width="320"><g><path transform="translate(-74.99272,-51.79039) scale(4.65793,4.65793)" d="M20.6 59.9l0.8 1-0.4-1.3c-0.1-0.6-0.8 0.1-0.4 0.3M21.5 59.3c0.3 0.5 0.6 1 0.6 1.5 0 0.7 0.6 1 1.1 1.2-0.7-0.8-1.1-3-1.7-2.7M59.9 16.9c1.7 0 3.3-0.2 5.1 0.2 4.4 1.1 8.1 3.3 10.6 6.4l7 11.2c0.3 2.8 0.9 5.9 0.8 9.3 0.7 0 0.6-1 1.4-1.2-0.8 2-1.2 4.5-1.4 7.4-0.5-1.6 0-4 0.1-5.3-0.7 1.1-1.1 0.3-1.1-0.2 0.1-0.8-0.3-0.7-0.6-1-1.1-1-1.8-2.1-2.6-3.8 0.5-1.3 0.6-3.2-1-4.2-0.5-0.3-1.1-0.8-1.4-1.6-0.4-1.1-1.1-2.4-0.9-4.1 0.1-0.5-1.5 1.1-2.4 0.4-3.9-2.7-7.8-5.8-12.5-8.4-2.5 0-4.3-0.9-5.2-2-0.8-1-0.2-2.3 1-2.4 0.7 0 1.5-0.2 2.1 0.2 0.1-0.4 0.5-0.9 1-0.9M50 14.6l0.2 0.1c1 0.2 1.5 1.6 2.6 1.1 0 0.7 0.1 1.4-0.1 1.9-0.3 0.8-1.2 0.8-1.9 0.8-6.7-0.4-10.6 2.4-14.7 4.8-1.1 0.7-2.3 1.2-3.2 2.1-4.3 4-9 7.7-10.1 15.1l-0.9 8.2c-0.1 0.9-1.1 1.8-0.9 2.9l0.7 4.9c-0.7-0.7-1.1 0.2-0.9 0.6 0.1 0.3 0.5 1.3 1.1 0.4 0.8 1.5 1.6 4.4 2.7 5.7 3.4 4 7.8 7.6 11.4 11.2 0.9-0.2 1.6-0.2 1.8-0.8 0.3 0.6-0.3 1.2-0.8 1.3 1.6 1 3.4 1.9 5.8 2.1 3.1 0.2 6 0.7 8.7 1.4 1.4-0.4 2.8-0.6 4.3-0.7 0.5 0 0.8-0.8 1.4-1l0.1-1c0.6 0.9 0.5-0.3 0.1-0.9 0.7 0.6 0.9 1.1 1.2 1.5 0-0.3 0.8-1.4 0.8-0.1l0.2-1.3c0.3-0.2 0.4 1.1 0.7 0.2 0.3-0.9 0.9-0.2 1.5-0.5-0.2 0.4-0.1 1.2 0.6 0.7l0.8-0.7c0.5 1.2 1.3 0.7 1.7 0.5 4.4-2.8 8.8-6.1 13-9.4l-0.1 1.3 0.5-1.6c0.5 0.5 0.9 0.1 1.1-0.2 0.6-1 1.4-2 2.7-2.9-1.6 4.3-3.5 7.7-5.9 10.5l-1 1.2c0 0.7-0.2 1.6-1 1.7-0.4 0.1-1.2-0.2-1.8 0.4-0.3 0.4 0.7 1.2-0.1 0.6-0.7-0.5-1.4 0-2.2 0.2-0.6 0.2 0.4 0.8 0.6 1.2 0.2 0.4 0.4 0.8 0.3 1.3l-1.1-1.2c-1.3 0.7-2.1 2-3.2 3-0.5 0.4-0.3 1.1-0.3 1.7-0.7 0-1.5-0.2-1.9 0.2-0.3 0.4-0.2 1-0.2 1.6-1-0.1-1.1-1.6-2-1.3-0.9 0.2-1.9 0.3-2.7 0.8 0.6 1.2-1 0.5-0.8 0.7-1.5-0.9-2.8-1.6-4.4-1-3.4-1.1-7.6-0.6-10.7-0.2 0-0.5 0.1-1-0.1-1.1-0.2 0.5-0.8 0.3-0.7 0.3-1.9-1.3-3.8-2.1-5.8-3.2-1.8 0.2-3.5-0.7-4-1.2-1.4-1.3-3-0.6-4.3-0.9-2.8-0.7-3.8-3.6-4.1-5.6-0.2-1-1-1.4-1.3-1.3-1.3-4.2-3.3-8-4.9-11.9-0.4-1-0.3-2-0.3-3.1 0.5 0.2 1 0.1 0.9-0.6-0.5-3.3-1.7-5.8-3-8.2 0.7-3.4 0.8-7.4 2.4-10.4 1.4-2.7 4-4.1 5.8-6.4 0.6-0.8 0.6-1.9 1.2-2.6 2-2 4-4.1 6.2-5.9 1-0.8 2.2 0 3.7-0.3 0.5-1.8 2.5-3.4 4.4-2.9 0.8 0.2 2.4-1.9 2.9-2.1 0.8-0.3 0.4 0.8 0.4 1.5 1.9-1.5 4.5-2.3 6.9-3.2" fill="#ffffff" fill-rule="nonzero" stroke="none" stroke-width="1" stroke-linecap="butt" stroke-linejoin="miter" stroke-miterlimit="10" stroke-dasharray="" stroke-dashoffset="0" font-family="none" font-weight="none" font-size="none" text-anchor="none" style="mix-blend-mode: normal" data-fill-palette-color="tertiary"></path></g><g transform="matrix(1,0,0,1,64,136.06546756103083)"><svg viewBox="0 0 192 87.86906487793833" height="87.86906487793833" width="192"><g><svg viewBox="0 0 282.7264711516456 129.39015956424223" height="87.86906487793833" width="192"><g><rect width="2.6629554338737584" height="129.39015956424223" x="81.09242819454215" y="0" fill="#ffffff" opacity="1" stroke-width="0" stroke="transparent" fill-opacity="1" class="rect-yte-0" data-fill-palette-color="primary" rx="1%" id="yte-0" data-palette-color="#ffffff"></rect></g><g transform="matrix(1,0,0,1,90.72647115164565,0.3218660685677577)"><svg viewBox="0 0 192 128.7464274271067" height="128.7464274271067" width="192"><g id="textblocktransform"><svg viewBox="0 0 192 128.7464274271067" height="128.7464274271067" width="192" id="textblock"><g><svg viewBox="0 0 192 128.7464274271067" height="128.7464274271067" width="192"><g transform="matrix(1,0,0,1,0,0)"><svg width="192" viewBox="0.41999999999999993 -31.67 216.73000000000002 141.70999999999998" height="128.7464274271067" data-palette-color="#ffffff"><svg></svg><svg></svg><svg></svg><svg></svg><g class="wordmark-text-0" data-fill-palette-color="primary" id="text-0"><path d="M11.11 0.42v0c-1.853 0-3.527-0.37-5.02-1.11-1.493-0.747-2.68-1.65-3.56-2.71v0l1.15-4.79c0.647 1.293 1.62 2.46 2.92 3.5 1.293 1.04 2.843 1.56 4.65 1.56v0c1.647 0 3.007-0.52 4.08-1.56 1.073-1.04 1.61-2.323 1.61-3.85v0c0-1.113-0.263-2.027-0.79-2.74-0.533-0.72-1.137-1.29-1.81-1.71-0.673-0.413-1.207-0.713-1.6-0.9v0l-3.82-1.94c-0.6-0.327-1.347-0.78-2.24-1.36-0.887-0.58-1.667-1.377-2.34-2.39-0.673-1.02-1.01-2.34-1.01-3.96v0c0-1.573 0.367-2.973 1.1-4.2 0.727-1.227 1.743-2.19 3.05-2.89 1.307-0.693 2.807-1.04 4.5-1.04v0c1.667 0 3.137 0.297 4.41 0.89 1.273 0.587 2.27 1.193 2.99 1.82v0l-1.15 4.79c-0.58-0.973-1.437-1.887-2.57-2.74-1.133-0.853-2.417-1.28-3.85-1.28v0c-1.393 0-2.507 0.41-3.34 1.23-0.833 0.82-1.25 1.833-1.25 3.04v0c0 0.927 0.213 1.69 0.64 2.29 0.433 0.6 0.92 1.073 1.46 1.42 0.547 0.347 0.993 0.613 1.34 0.8v0l3.89 1.94c0.46 0.233 1.043 0.56 1.75 0.98 0.707 0.413 1.407 0.963 2.1 1.65 0.693 0.68 1.273 1.513 1.74 2.5 0.46 0.98 0.69 2.167 0.69 3.56v0c0 1.78-0.42 3.363-1.26 4.75-0.847 1.393-2 2.483-3.46 3.27-1.46 0.787-3.127 1.18-5 1.18zM31.25 0h-3.96v-31.25h3.96v10.21h11.11v-10.21h3.96v31.25h-3.96v-17.5h-11.11zM70.49 0h-15.42v-31.25h15.42v3.54h-11.46v6.67h9.03v3.54h-9.03v13.96h11.46z" fill="#ffffff" fill-rule="nonzero" stroke="none" stroke-width="1" stroke-linecap="butt" stroke-linejoin="miter" stroke-miterlimit="10" stroke-dasharray="" stroke-dashoffset="0" font-family="none" font-weight="none" font-size="none" text-anchor="none" style="mix-blend-mode: normal" data-fill-palette-color="primary" opacity="1"></path><path transform="translate(0,36.33)" d="M11.11 0.42v0c-1.853 0-3.527-0.37-5.02-1.11-1.493-0.747-2.68-1.65-3.56-2.71v0l1.15-4.79c0.647 1.293 1.62 2.46 2.92 3.5 1.293 1.04 2.843 1.56 4.65 1.56v0c1.647 0 3.007-0.52 4.08-1.56 1.073-1.04 1.61-2.323 1.61-3.85v0c0-1.113-0.263-2.027-0.79-2.74-0.533-0.72-1.137-1.29-1.81-1.71-0.673-0.413-1.207-0.713-1.6-0.9v0l-3.82-1.94c-0.6-0.327-1.347-0.78-2.24-1.36-0.887-0.58-1.667-1.377-2.34-2.39-0.673-1.02-1.01-2.34-1.01-3.96v0c0-1.573 0.367-2.973 1.1-4.2 0.727-1.227 1.743-2.19 3.05-2.89 1.307-0.693 2.807-1.04 4.5-1.04v0c1.667 0 3.137 0.297 4.41 0.89 1.273 0.587 2.27 1.193 2.99 1.82v0l-1.15 4.79c-0.58-0.973-1.437-1.887-2.57-2.74-1.133-0.853-2.417-1.28-3.85-1.28v0c-1.393 0-2.507 0.41-3.34 1.23-0.833 0.82-1.25 1.833-1.25 3.04v0c0 0.927 0.213 1.69 0.64 2.29 0.433 0.6 0.92 1.073 1.46 1.42 0.547 0.347 0.993 0.613 1.34 0.8v0l3.89 1.94c0.46 0.233 1.043 0.56 1.75 0.98 0.707 0.413 1.407 0.963 2.1 1.65 0.693 0.68 1.273 1.513 1.74 2.5 0.46 0.98 0.69 2.167 0.69 3.56v0c0 1.78-0.42 3.363-1.26 4.75-0.847 1.393-2 2.483-3.46 3.27-1.46 0.787-3.127 1.18-5 1.18zM31.25 0h-3.96v-31.25h3.96v10.21h11.11v-10.21h3.96v31.25h-3.96v-17.5h-11.11zM55.31 0h-3.99l13.23-32.29h0.07l13.23 32.29h-4.2l-3.68-9.27h-10.94zM62.81-18.75l-2.46 6.18h8.3l-2.47-6.18c-0.3-0.787-0.59-1.563-0.87-2.33-0.273-0.76-0.55-1.673-0.83-2.74v0c-0.28 1.067-0.547 1.977-0.8 2.73-0.253 0.747-0.543 1.527-0.87 2.34zM86.91 0h-3.96v-31.25h7.85c1.967 0 3.657 0.393 5.07 1.18 1.413 0.787 2.507 1.823 3.28 3.11 0.773 1.287 1.16 2.693 1.16 4.22v0c0 1.713-0.487 3.25-1.46 4.61-0.967 1.367-2.297 2.377-3.99 3.03v0l10.49 15.1h-4.62l-9.93-14.38h-3.89zM86.91-27.71v10h3.89c1.34 0 2.433-0.247 3.28-0.74 0.847-0.5 1.47-1.137 1.87-1.91 0.407-0.78 0.61-1.573 0.61-2.38v0c0-1.46-0.527-2.653-1.58-3.58-1.053-0.927-2.447-1.39-4.18-1.39v0zM125.35 0h-15.42v-31.25h15.42v3.54h-11.46v6.67h9.03v3.54h-9.03v13.96h11.46z" fill="#ffffff" fill-rule="nonzero" stroke="none" stroke-width="1" stroke-linecap="butt" stroke-linejoin="miter" stroke-miterlimit="10" stroke-dasharray="" stroke-dashoffset="0" font-family="none" font-weight="none" font-size="none" text-anchor="none" style="mix-blend-mode: normal" data-fill-palette-color="primary" opacity="1"></path><path transform="translate(0,72.67)" d="M13.06 1.04h-0.07l-12.57-32.29h4.16l7.36 18.82c0.233 0.6 0.45 1.173 0.65 1.72 0.193 0.54 0.383 1.17 0.57 1.89v0c0.187-0.72 0.377-1.35 0.57-1.89 0.2-0.547 0.417-1.12 0.65-1.72v0l7.32-18.82h3.93zM30.66 0h-3.99l13.23-32.29h0.07l13.22 32.29h-4.2l-3.68-9.27h-10.93zM38.16-18.75l-2.47 6.18h8.3l-2.46-6.18c-0.3-0.787-0.59-1.563-0.87-2.33-0.28-0.76-0.557-1.673-0.83-2.74v0c-0.28 1.067-0.547 1.977-0.8 2.73-0.253 0.747-0.543 1.527-0.87 2.34zM72.22 0.63v0c-2.247 0-4.357-0.423-6.33-1.27-1.98-0.847-3.717-2.01-5.21-3.49-1.493-1.48-2.663-3.207-3.51-5.18-0.847-1.967-1.27-4.073-1.27-6.32v0c0-2.24 0.423-4.343 1.27-6.31 0.847-1.973 2.017-3.7 3.51-5.18 1.493-1.48 3.23-2.643 5.21-3.49 1.973-0.847 4.083-1.27 6.33-1.27v0c2.227 0 4.31 0.413 6.25 1.24 1.947 0.82 3.66 1.947 5.14 3.38v0l-1.14 4.79c-1.067-1.707-2.497-3.077-4.29-4.11-1.793-1.033-3.78-1.55-5.96-1.55v0c-2.293 0-4.36 0.563-6.2 1.69-1.84 1.12-3.303 2.623-4.39 4.51-1.087 1.887-1.63 3.987-1.63 6.3v0c0 2.293 0.543 4.39 1.63 6.29 1.087 1.9 2.55 3.41 4.39 4.53 1.84 1.12 3.907 1.68 6.2 1.68v0c2.2 0 4.19-0.52 5.97-1.56 1.787-1.04 3.213-2.403 4.28-4.09v0l1.14 4.79c-1.48 1.407-3.193 2.527-5.14 3.36-1.94 0.84-4.023 1.26-6.25 1.26zM89.69 0h-4l13.23-32.29h0.07l13.23 32.29h-4.2l-3.68-9.27h-10.94zM97.19-18.75l-2.47 6.18h8.3l-2.46-6.18c-0.307-0.787-0.597-1.563-0.87-2.33-0.28-0.76-0.56-1.673-0.84-2.74v0c-0.273 1.067-0.537 1.977-0.79 2.73-0.26 0.747-0.55 1.527-0.87 2.34zM122.85-27.71h-8.34v-3.54h20.63v3.54h-8.33v27.71h-3.96zM145.56 0h-3.96v-31.25h3.96zM168.75 0.63v0c-2.247 0-4.36-0.423-6.34-1.27-1.98-0.847-3.717-2.01-5.21-3.49-1.487-1.48-2.653-3.207-3.5-5.18-0.847-1.967-1.27-4.073-1.27-6.32v0c0-2.24 0.423-4.343 1.27-6.31 0.847-1.973 2.013-3.7 3.5-5.18 1.493-1.48 3.23-2.643 5.21-3.49 1.98-0.847 4.093-1.27 6.34-1.27v0c2.267 0 4.383 0.423 6.35 1.27 1.973 0.847 3.707 2.01 5.2 3.49 1.487 1.48 2.653 3.207 3.5 5.18 0.847 1.967 1.27 4.07 1.27 6.31v0c0 2.247-0.423 4.353-1.27 6.32-0.847 1.973-2.013 3.7-3.5 5.18-1.493 1.48-3.227 2.643-5.2 3.49-1.967 0.847-4.083 1.27-6.35 1.27zM168.75-3.13v0c2.293 0 4.367-0.56 6.22-1.68 1.847-1.12 3.31-2.63 4.39-4.53 1.073-1.9 1.61-3.997 1.61-6.29v0c0-2.313-0.537-4.413-1.61-6.3-1.08-1.887-2.543-3.39-4.39-4.51-1.853-1.127-3.927-1.69-6.22-1.69v0c-2.293 0-4.36 0.563-6.2 1.69-1.84 1.12-3.303 2.623-4.39 4.51-1.087 1.887-1.63 3.987-1.63 6.3v0c0 2.293 0.543 4.39 1.63 6.29 1.087 1.9 2.55 3.41 4.39 4.53 1.84 1.12 3.907 1.68 6.2 1.68zM217.15-31.25v32.29l-21.87-23.44v22.4h-3.75v-32.29l21.87 23.44v-22.4z" fill="#ffffff" fill-rule="nonzero" stroke="none" stroke-width="1" stroke-linecap="butt" stroke-linejoin="miter" stroke-miterlimit="10" stroke-dasharray="" stroke-dashoffset="0" font-family="none" font-weight="none" font-size="none" text-anchor="none" style="mix-blend-mode: normal" data-fill-palette-color="primary" opacity="1"></path><path transform="translate(0,109)" d="M8.44 0h-3.96v-31.25h7.85c1.967 0 3.657 0.393 5.07 1.18 1.407 0.787 2.5 1.823 3.28 3.11 0.773 1.287 1.16 2.693 1.16 4.22v0c0 1.713-0.487 3.25-1.46 4.61-0.973 1.367-2.303 2.377-3.99 3.03v0l10.49 15.1h-4.62l-9.93-14.38h-3.89zM8.44-27.71v10h3.89c1.34 0 2.433-0.247 3.28-0.74 0.847-0.5 1.47-1.137 1.87-1.91 0.407-0.78 0.61-1.573 0.61-2.38v0c0-1.46-0.527-2.653-1.58-3.58-1.053-0.927-2.447-1.39-4.18-1.39v0zM46.88 0h-15.42v-31.25h15.42v3.54h-11.46v6.67h9.02v3.54h-9.02v13.96h11.46zM78.96-31.25v32.29l-21.88-23.44v22.4h-3.75v-32.29l21.88 23.44v-22.4zM93.33-27.71h-8.33v-3.54h20.63v3.54h-8.34v27.71h-3.96zM111.91 0h-3.99l13.23-32.29h0.07l13.22 32.29h-4.2l-3.68-9.27h-10.93zM119.41-18.75l-2.47 6.18h8.3l-2.46-6.18c-0.3-0.787-0.59-1.563-0.87-2.33-0.28-0.76-0.557-1.673-0.83-2.74v0c-0.28 1.067-0.547 1.977-0.8 2.73-0.253 0.747-0.543 1.527-0.87 2.34zM154.24 0h-14.8v-31.25h3.96v27.71h10.84zM167.01 0.42v0c-1.847 0-3.517-0.37-5.01-1.11-1.493-0.747-2.68-1.65-3.56-2.71v0l1.14-4.79c0.653 1.293 1.627 2.46 2.92 3.5 1.293 1.04 2.843 1.56 4.65 1.56v0c1.647 0 3.007-0.52 4.08-1.56 1.08-1.04 1.62-2.323 1.62-3.85v0c0-1.113-0.267-2.027-0.8-2.74-0.533-0.72-1.137-1.29-1.81-1.71-0.667-0.413-1.197-0.713-1.59-0.9v0l-3.82-1.94c-0.607-0.327-1.353-0.78-2.24-1.36-0.893-0.58-1.677-1.377-2.35-2.39-0.667-1.02-1-2.34-1-3.96v0c0-1.573 0.363-2.973 1.09-4.2 0.727-1.227 1.747-2.19 3.06-2.89 1.307-0.693 2.803-1.04 4.49-1.04v0c1.667 0 3.137 0.297 4.41 0.89 1.273 0.587 2.27 1.193 2.99 1.82v0l-1.15 4.79c-0.58-0.973-1.437-1.887-2.57-2.74-1.133-0.853-2.417-1.28-3.85-1.28v0c-1.387 0-2.497 0.41-3.33 1.23-0.833 0.82-1.25 1.833-1.25 3.04v0c0 0.927 0.213 1.69 0.64 2.29 0.427 0.6 0.913 1.073 1.46 1.42 0.54 0.347 0.983 0.613 1.33 0.8v0l3.89 1.94c0.467 0.233 1.05 0.56 1.75 0.98 0.707 0.413 1.41 0.963 2.11 1.65 0.693 0.68 1.27 1.513 1.73 2.5 0.467 0.98 0.7 2.167 0.7 3.56v0c0 1.78-0.423 3.363-1.27 4.75-0.847 1.393-2 2.483-3.46 3.27-1.453 0.787-3.12 1.18-5 1.18z" fill="#ffffff" fill-rule="nonzero" stroke="none" stroke-width="1" stroke-linecap="butt" stroke-linejoin="miter" stroke-miterlimit="10" stroke-dasharray="" stroke-dashoffset="0" font-family="none" font-weight="none" font-size="none" text-anchor="none" style="mix-blend-mode: normal" data-fill-palette-color="primary" opacity="1"></path></g></svg></g></svg></g></svg></g></svg></g><g transform="matrix(1,0,0,1,0,17.058901634091633)"><svg viewBox="0 0 74.12134067131241 95.27235629605896" height="95.27235629605896" width="74.12134067131241"><g><svg xmlns="http://www.w3.org/2000/svg" xml:space="preserve" viewBox="13.515999999999984 4.99999551876733 69.48400000000001 89.31171974116086" x="0" y="0" height="95.27235629605896" width="74.12134067131241" class="icon-icon-0" data-fill-palette-color="accent" id="icon-0"><path d="M19.847 63.395a8 8 0 0 0 0.615 0.414q0.214 0.136 0.437 0.261 0.093 0.048 0.189 0.099a9 9 0 0 0 1.572 0.631c0.069 0.02 0.135 0.045 0.205 0.063l0.003-0.005c1.792 0.477 3.896 0.422 6.37-0.476 1.773-0.643 2.754-1.986 3.286-3.444l0.016-0.044a8 8 0 0 0 0.295-1.018c0.416 0.066 0.856 0.115 1.346 0.115 0.658 0 1.39-0.083 2.178-0.257 0.105 0.902 0.077 2.593 0.103 4.138 0.011 0.66 0.606 1.013 1.24 1.022a1 1 0 0 0 0.184-0.012c0.548-0.084 1.036-0.578 1.071-1.173 0.438-7.402-1.415-8.561-1.719-8.817a1.38 1.38 0 0 0-1.093-0.306 1.24 1.24 0 0 0-0.646 0.3c-0.48 0.432-0.437 1.114-0.121 1.688 0.075 0.136 0.194 0.302 0.408 0.847-1.103 0.243-1.946 0.217-2.677 0.097a17 17 0 0 0 0-0.553v-0.011a14 14 0 0 0-0.055-1.005l-0.003-0.027a10 10 0 0 0-0.044-0.399l-0.002-0.019-0.013-0.088-0.002-0.019-0.005-0.029-0.003-0.031-0.003-0.018a1 1 0 0 0-0.021-0.131l-0.034-0.165-0.006-0.024a6 6 0 0 0-0.061-0.223l-0.015-0.048a4 4 0 0 0-0.228-0.572l-0.027-0.056a4 4 0 0 0-0.175-0.317l-0.029-0.046a5 5 0 0 0-0.24-0.349 5 5 0 0 0-0.278-0.325L31.804 53a4 4 0 0 0-0.348-0.321l-0.011-0.01a5 5 0 0 0-0.401-0.289l-0.088-0.058a5 5 0 0 0-0.475-0.26l-0.095-0.043a6 6 0 0 0-0.596-0.232 7 7 0 0 0-0.635-0.17q-0.077-0.016-0.155-0.029a8 8 0 0 0-0.737-0.113q-0.032-0.002-0.064-0.003a10 10 0 0 0-0.785-0.036c-0.039-0.002-0.072-0.006-0.111-0.006-0.024 0-0.054 0.004-0.079 0.004q-0.433 0.002-0.91 0.039-0.096 0.011-0.193 0.02-0.44 0.042-0.92 0.117l-0.178 0.026q-0.539 0.091-1.127 0.226l-0.277 0.065c-0.411 0.1-0.834 0.21-1.282 0.344a12 12 0 0 1-0.918 0.232c-0.104 0.022-0.205 0.037-0.309 0.058q-0.301 0.058-0.598 0.103-0.176 0.023-0.352 0.042-0.272 0.032-0.539 0.051-0.177 0.015-0.351 0.022-0.263 0.015-0.521 0.017-0.188 0.004-0.373 0.004l-0.167-0.003a17 17 0 0 1-0.571-0.022l-0.088-0.004a19 19 0 0 1-0.623-0.054l-0.129-0.013q-0.247-0.029-0.48-0.061l-0.121-0.018a15 15 0 0 1-0.532-0.087q-0.027-0.004-0.053-0.01a26 26 0 0 1-0.544-0.107l-0.391-0.091q-0.012-0.004-0.025-0.007a14 14 0 0 1-0.361-0.094l-0.075-0.021q-0.128-0.035-0.235-0.067l-0.054-0.016q-0.12-0.037-0.208-0.066l-0.035-0.01-0.104-0.036-0.031-0.011-0.033-0.012 0.007 0.037 0.007 0.035 0.016 0.075 0.018 0.086 0.02 0.09 0.03 0.135 0.022 0.094q0.042 0.18 0.101 0.411l0.017 0.062 0.067 0.256 0.031 0.115 0.082 0.294 0.032 0.109q0.048 0.168 0.104 0.345l0.008 0.028c0.125 0.406 0.274 0.855 0.448 1.333l0.029 0.077q0.081 0.222 0.171 0.452l0.035 0.09c0.264 0.672 0.577 1.384 0.943 2.102l0.029 0.058q0.129 0.251 0.268 0.501l0.052 0.094q0.142 0.256 0.293 0.51l0.004 0.006a17 17 0 0 0 1.121 1.651q0.174 0.223 0.356 0.441l0.098 0.114q0.184 0.216 0.378 0.424l0.065 0.066q0.621 0.659 1.342 1.208 0.07 0.055 0.137 0.106" fill="#ffffff" data-fill-palette-color="accent"></path><path d="M44.517 58.801c-1.184 0.039-2.608 1.454-2.432 2.961 0.218 1.879-0.135 3.254-0.709 3.841 1.476 0.14 2.29-1.334 2.298-1.346 0.372-0.77 1.142-1.258 1.852-0.771 0.472 0.322 1.608 1.158 0.375 2.616-0.189 0.225-2.681 3.171-7.739 2.843-4.222-0.275-4.426-2.037-4.78-2.487-0.783 0.899-1.802 1.273-3.121 1.751-1.667 0.604-3.445 0.661-4.987 0.661-1.247 0-3.464-0.571-4.411-1.307-4.492 5.143 0.263 15.409 2.125 18.589 4.623 7.889 10.197 9.011 13.23 7.403 1.749-0.926 2.354-0.217 3.694 0.092 12.241 2.814 17.499-12.395 18.147-20.596 0.31-3.963-1.284-15.863-13.542-14.25" fill="#ffffff" data-fill-palette-color="accent"></path><path fill="none" d="M72.604 15.464c0.016-0.595 0.031-1 0.053-1.588-1.078 0.129-2.861 0.302-3.572 0.302-0.582 0-1.896-0.119-2.945-0.231 0.17 4.755 0.197 7.595-0.061 12.365-0.021 0.385-0.041 1.396-0.062 1.789h6.764c-0.125-1.865-0.182-4.36-0.211-6.222-0.049-2.762-0.033-3.655 0.034-6.415"></path><path d="M65.514 13.876l0.625 0.071-0.004-0.069z" fill="#ffffff" data-fill-palette-color="accent"></path><path fill="none" d="M65.514 13.876l0.625 0.071-0.004-0.069zM62.062 72.267a36 36 0 0 1-0.227 2.043h18.533V52.102h-21.85c-0.189-0.251-0.059 5.094-0.096 7.74 3.31 3.982 3.857 9.665 3.64 12.425M72.604 15.464c0.016-0.595 0.031-1 0.053-1.588-1.078 0.129-2.861 0.302-3.572 0.302-0.582 0-1.896-0.119-2.945-0.231 0.17 4.755 0.197 7.595-0.061 12.365-0.021 0.385-0.041 1.396-0.062 1.789h6.764c-0.125-1.865-0.182-4.36-0.211-6.222-0.049-2.762-0.033-3.655 0.034-6.415"></path><path d="M76.426 35.443c-0.479-0.321-0.713-1.357-0.865-1.956-0.324-1.282-0.479-2.61-0.607-3.926-0.322-3.27-0.391-6.566-0.408-9.85-0.01-2.436 0.02-3.004 0.09-5.438q0.01-0.31 0.023-0.624h-0.002c0.014-0.042 0.041-0.116 0.092-0.22 0.184-0.371 0.365-0.751 0.506-1.145 0.355-0.99 1.076-1.912 0.734-2.922-0.143-0.422-1.143-3.048-1.662-3.445-0.329-0.251-3.499-0.919-5.227-0.917-1.732-0.002-4.305 0.666-4.633 0.918-0.518 0.396-1.518 3.022-1.66 3.445-0.346 1.011 0.375 1.932 0.734 2.922 0.139 0.394 0.32 0.773 0.506 1.145 0.053 0.104 0.078 0.179 0.092 0.22l0.012 0.335q0.04 1.325 0.066 2.651c0.055 3.042 0.055 4.218-0.039 7.26-0.092 3.017-0.207 6.098-0.822 9.063-0.16 0.765-0.336 1.765-0.861 2.369-0.344 0.393-1.104 0.787-1.578 1.174-0.928 0.752-1.742 1.638-2.469 2.58-1.449 1.867-2.441 2.801-2.654 6.41v12.009a11.6 11.6 0 0 1 2.629 2.341c0.037-2.646-0.094-7.991 0.096-7.74h21.852V74.31H61.836c-0.639 4.578-2.295 10.295-5.174 14.934q0.029 0.09 0.068 0.179c0.32 0.718 0.908 1.991 1.471 2.546 0.594 0.578 1.256 0.787 2.02 1.052 1.729 0.6 3.488 0.956 5.311 1.119 4.312 0.383 9.344 0.192 13.445-1.259 0.732-0.256 1.188-0.486 1.752-1.045 0.598-0.585 1.16-1.386 1.48-2.145 0.539-1.297 0.791-2.546 0.791-2.689V44.891c-0.479-5.105-3.359-7.404-6.574-9.448m-10.41-7.342c0.021-0.393 0.041-1.403 0.062-1.789 0.258-4.771 0.23-7.61 0.061-12.365a46 46 0 0 1-0.625-0.071l0.621 0.002 0.004 0.069c1.049 0.112 2.363 0.231 2.945 0.231 0.711 0 2.494-0.173 3.572-0.302-0.021 0.588-0.037 0.993-0.053 1.588-0.066 2.76-0.082 3.653-0.035 6.415 0.029 1.862 0.086 4.357 0.211 6.222zM72.656 13.876" fill="#ffffff" data-fill-palette-color="accent"></path></svg></g></svg></g></svg></g></svg></g></svg></g><defs></defs></svg><rect width="320" height="360" fill="none" stroke="none" visibility="hidden"></rect></g></svg></g></svg>